Harry Potter And The Deathly Hallows Part 1 PPVRIP IFLIX 
http://www.imdb.com/title/tt0926084/

[IMG]http://lookpic.com/c1/i2/2556/tM8nMGb.jpeg[/IMG]
[IMG]http://img141.imageshack.us/img141/874/69627186.png[/IMG]
[IMG]http://img121.imageshack.us/img121/9185/89528198.png[/IMG]
[IMG]http://img576.imageshack.us/img576/8873/81195132.png[/IMG]
Trailer:


Format                           : AVI
Format/Info                      : Audio Video Interleave
Format profile                   : OpenDML
File size                        : 1.66 GiB
Duration                         : 2h 19mn
Overall bit rate                 : 1 696 Kbps

Video
ID                               : 0
Format                           : MPEG-4 Visual
Format profile                   : Simple@L3
Format settings, BVOP            : No
Format settings, QPel            : No
Format settings, GMC             : No warppoints
Format settings, Matrix          : Default (H.263)
Codec ID                         : XVID
Codec ID/Hint                    : XviD
Duration                         : 2h 19mn
Bit rate                         : 1 550 Kbps
Width                            : 720 pixels
Height                           : 480 pixels
Display aspect ratio             : 1.500
Frame rate                       : 29.970 fps
Original frame rate              : 29.000 fps
Standard                         : NTSC
Resolution                       : 24 bits
Colorimetry                      : 4:2:0
Scan type                        : Progressive
Bits/(Pixel*Frame)               : 0.150
Stream size                      : 1.51 GiB (91%)
Writing library                  : XviD 1.2.1 (UTC 2008-12-04)

Audio
ID                               : 1
Format                           : MPEG Audio
Format version                   : Version 1
Format profile                   : Layer 3
Format_Settings_Mode             : Joint stereo / MS Stereo
Codec ID                         : 55
Codec ID/Hint                    : MP3
Duration                         : 2h 19mn
Bit rate mode                    : Constant
Bit rate                         : 128 Kbps
Channel(s)                       : 2 channels
Sampling rate                    : 44.1 KHz
Resolution                       : 16 bits
Stream size                      : 128 MiB (8%)
Alignment                        : Aligned on interleaves
Interleave, duration             : 26 ms (0.78 video frame)
Writing library                  : LAME3.98.2

Release notes...
If you take note of the video length you will notice that this release is full and complete and a real PPVRIP.
Enjoy!

Another quality release from IFLIX
More to come very soon!

Video source: Ours
Audio source: Ours

Greetings to all other groups out there. You all do awesome work and we greatly appreciate it.
IFLIX :-)